<svg width="19" height="19" viewBox="0 0 19 19" fill="none" xmlns="http://www.w3.org/2000/svg">
<path fill-rule="evenodd" clip-rule="evenodd" d="M13.735 0.835028C13.3945 0.494366 12.9426 0.287992 12.4622 0.253822C11.9818 0.219652 11.5052 0.359981 11.12 0.649028L8.20699 2.83403C6.99689 3.74181 5.5775 4.32992 4.07999 4.54403L1.90299 4.85403C1.17299 4.95903 0.637987 5.74503 0.989987 6.51603C1.32099 7.23903 2.37499 9.14503 5.34999 12.236L1.17199 16.414C1.07648 16.5063 1.0003 16.6166 0.947886 16.7386C0.895477 16.8606 0.867891 16.9918 0.866737 17.1246C0.865583 17.2574 0.890885 17.3891 0.941166 17.512C0.991447 17.6349 1.0657 17.7465 1.15959 17.8404C1.25349 17.9343 1.36514 18.0086 1.48803 18.0588C1.61093 18.1091 1.74261 18.1344 1.87539 18.1333C2.00817 18.1321 2.13939 18.1045 2.26139 18.0521C2.3834 17.9997 2.49374 17.9235 2.58599 17.828L6.76399 13.65C9.85499 16.625 11.761 17.679 12.484 18.01C13.254 18.362 14.041 17.827 14.145 17.097L14.456 14.92C14.6701 13.4225 15.2582 12.0031 16.166 10.793L18.35 7.88003C18.639 7.4948 18.7794 7.0182 18.7452 6.5378C18.711 6.0574 18.5046 5.60547 18.164 5.26503L13.735 0.835028ZM12.32 2.25003L16.75 6.68003L14.566 9.59403C13.4565 11.073 12.7377 12.8078 12.476 14.638L12.333 15.639C11.353 15.015 9.72999 13.802 7.46399 11.536C5.19999 9.27003 3.98599 7.64803 3.36199 6.66803L4.36199 6.52503C6.1926 6.26349 7.92773 5.54467 9.40699 4.43503L12.32 2.25003Z" fill="white"/>
</svg>
